<?xml version="1.0" encoding="UTF-8"?>
<svg id="Layer_1" data-name="Layer 1" xmlns="http://www.w3.org/2000/svg" viewBox="0 0 577.5 798">
  <defs>
    <style>
      .cls-1 {
        stroke-width: 27px;
      }

      .cls-1, .cls-2, .cls-3 {
        fill: none;
        stroke: #000;
        stroke-miterlimit: 10;
      }

      .cls-2 {
        stroke-width: 11px;
      }

      .cls-3 {
        stroke-width: 14px;
      }
    </style>
  </defs>
  <path d="M285.5,128.57l59.39,97.07,79.25,129.52c1.2,2.06,12.67,21.89,23.92,46.9,14.48,32.18,22.45,59.33,22.45,76.45,0,48.45-18.56,94.3-52.27,129.08-33.63,34.71-78.7,54.71-126.91,56.32-2.08.07-4.19.1-6.26.1-25.1,0-49.48-5-72.48-14.85-22.27-9.54-42.25-23.18-59.4-40.54-17.11-17.31-30.46-37.4-39.7-59.69-9.57-23.1-14.27-47.56-13.97-72.72.54-44.67,17.41-72.2,48.04-122.17l.45-.74.09-.11,1.1-1.84,68.14-111.36,68.17-111.41M285.5,73.01s0,0-.01,0l-92.89,151.82-68.2,111.46s0,0,0,0c-32.9,53.7-53.23,86.03-53.88,139.54-1.45,119.46,95.97,217.15,214.55,217.15,2.4,0,4.81-.04,7.23-.12,115.1-3.84,207.21-98.35,207.21-214.38,0-52.68-50.48-138.24-50.48-138.24l-79.39-129.76-84.12-137.48s0,0-.01,0h0Z"/>
  <path class="cls-1" d="M66,647.5c8.98,11.31,89.22,108.84,224,106,124.72-2.63,198.42-89.15,209-102"/>
  <polyline class="cls-3" points="137.4 435.18 213 564 285 435.18"/>
  <path class="cls-2" d="M396.21,505.76c-6.45,0-6.43-9.99,0-10,9.23-.01,18.45-.17,27.67-.42-4.45-32.67-32.36-57.84-66.13-57.84-36.86,0-66.75,30-66.75,67s29.89,67,66.75,67,66.29-29.55,66.73-66.18c-9.42.26-18.84.42-28.27.43Z"/>
  <ellipse cx="344.5" cy="474.5" rx="13" ry="13.5"/>
  <circle cx="344" cy="537.5" r="13.5"/>
</svg>